# xmcd
#
# Track frame offsets:
#	150
#	18542
#	32777
#	49820
#	64627
#	78445
#	94835
#	113402
#	134117
#	150787
#	166650
#
# Disc length: 2487 seconds
#
# Revision: 0
# Processed by: cddbd v1.5.2PL0 Copyright (c) Steve Scherf et al.
# Submitted via: EasyCDDAExtractor 12.0.6 .1
#
DISCID=7f09b50b
DTITLE=さとう宗幸 - 青葉城恋唄
DYEAR=1994
DGENRE=
TTITLE0=青葉城恋唄
TTITLE1=北の旅
TTITLE2=ねむるオンネトー
TTITLE3=遠くへ行きたい
TTITLE4=みちのく挽歌
TTITLE5=人はみな旅人なのさ
TTITLE6=忘れ言葉
TTITLE7=坊がつる讃歌
TTITLE8=四つの島から
TTITLE9=北への想い
TTITLE10=場面
EXTD=
EXTT0=
EXTT1=
EXTT2=
EXTT3=
EXTT4=
EXTT5=
EXTT6=
EXTT7=
EXTT8=
EXTT9=
EXTT10=
PLAYORDER=
